<?xml version="1.0" encoding="UTF-8" standalone="no"?>
<!-- Created with Inkscape (http://www.inkscape.org/) -->

<svg
   xmlns:dc="http://purl.org/dc/elements/1.1/"
   xmlns:cc="http://creativecommons.org/ns#"
   xmlns:rdf="http://www.w3.org/1999/02/22-rdf-syntax-ns#"
   xmlns:svg="http://www.w3.org/2000/svg"
   xmlns="http://www.w3.org/2000/svg"
   xmlns:sodipodi="http://sodipodi.sourceforge.net/DTD/sodipodi-0.dtd"
   xmlns:inkscape="http://www.inkscape.org/namespaces/inkscape"
   width="297mm"
   height="420mm"
   viewBox="0 0 1052.3622 1488.189"
   id="svg4200"
   version="1.1"
   inkscape:version="0.91 r13725"
   sodipodi:docname="Bike Navigation Acrylic Case.svg">
  <defs
     id="defs4202">
    <inkscape:path-effect
       effect="spiro"
       id="path-effect5177"
       is_visible="true" />
  </defs>
  <sodipodi:namedview
     id="base"
     pagecolor="#ffffff"
     bordercolor="#666666"
     borderopacity="1.0"
     inkscape:pageopacity="0.0"
     inkscape:pageshadow="2"
     inkscape:zoom="0.80221475"
     inkscape:cx="468.05715"
     inkscape:cy="244.86718"
     inkscape:document-units="px"
     inkscape:current-layer="layer1"
     showgrid="false"
     inkscape:window-width="1600"
     inkscape:window-height="837"
     inkscape:window-x="-8"
     inkscape:window-y="-8"
     inkscape:window-maximized="1" />
  <metadata
     id="metadata4205">
    <rdf:RDF>
      <cc:Work
         rdf:about="">
        <dc:format>image/svg+xml</dc:format>
        <dc:type
           rdf:resource="http://purl.org/dc/dcmitype/StillImage" />
        <dc:title />
      </cc:Work>
    </rdf:RDF>
  </metadata>
  <g
     inkscape:label="Layer 1"
     inkscape:groupmode="layer"
     id="layer1"
     transform="translate(0,435.82677)">
    <ellipse
       style="opacity:1;fill:none;fill-opacity:1;stroke:#ff0000;stroke-width:0.63683772;stroke-linecap:butt;stroke-linejoin:miter;stroke-miterlimit:4;stroke-dasharray:none;stroke-dashoffset:0;stroke-opacity:1"
       id="path4273-6"
       cx="-1037.3604"
       cy="80.993462"
       transform="matrix(0,-1,1,0,0,0)"
       rx="3.5849578"
       ry="3.5794694" />
    <ellipse
       style="opacity:1;fill:none;fill-opacity:1;stroke:#ff0000;stroke-width:0.63683772;stroke-linecap:butt;stroke-linejoin:miter;stroke-miterlimit:4;stroke-dasharray:none;stroke-dashoffset:0;stroke-opacity:1"
       id="path4273-6-8"
       cx="-851.93854"
       cy="136.80064"
       transform="matrix(0,-1,1,0,0,0)"
       rx="3.5849578"
       ry="3.5794694" />
    <ellipse
       style="opacity:1;fill:none;fill-opacity:1;stroke:#ff0000;stroke-width:0.63683772;stroke-linecap:butt;stroke-linejoin:miter;stroke-miterlimit:4;stroke-dasharray:none;stroke-dashoffset:0;stroke-opacity:1"
       id="path4273-6-8-5"
       cx="-851.93835"
       cy="23.414623"
       transform="matrix(0,-1,1,0,0,0)"
       rx="3.5849578"
       ry="3.5794694" />
    <rect
       style="opacity:1;fill:none;fill-opacity:1;stroke:#ff0000;stroke-width:1.83981156;stroke-linecap:butt;stroke-linejoin:miter;stroke-miterlimit:4;stroke-dasharray:none;stroke-dashoffset:0;stroke-opacity:1"
       id="rect4806"
       width="157.61069"
       height="214.63229"
       x="1.3022902"
       y="836.88971"
       ry="19.705669" />
    <rect
       style="opacity:1;fill:none;fill-opacity:1;stroke:#12d833;stroke-width:1.83981156;stroke-linecap:butt;stroke-linejoin:miter;stroke-miterlimit:4;stroke-dasharray:none;stroke-dashoffset:0;stroke-opacity:1"
       id="rect4806-6"
       width="157.61069"
       height="214.63229"
       x="167.83801"
       y="836.88971"
       ry="19.705669" />
    <rect
       style="opacity:1;fill:none;fill-opacity:1;stroke:#12d833;stroke-width:1.66193831;stroke-linecap:butt;stroke-linejoin:miter;stroke-miterlimit:4;stroke-dasharray:none;stroke-dashoffset:0;stroke-opacity:1"
       id="rect4806-6-2"
       width="140.07185"
       height="197.06657"
       x="176.60742"
       y="845.67261"
       ry="18.092936" />
    <rect
       style="opacity:1;fill:none;fill-opacity:1;stroke:#12d833;stroke-width:1.83981156;stroke-linecap:butt;stroke-linejoin:miter;stroke-miterlimit:4;stroke-dasharray:none;stroke-dashoffset:0;stroke-opacity:1"
       id="rect4806-6-5"
       width="157.61069"
       height="214.63229"
       x="334.37375"
       y="836.88971"
       ry="19.705669" />
    <rect
       style="opacity:1;fill:none;fill-opacity:1;stroke:#12d833;stroke-width:1.66193831;stroke-linecap:butt;stroke-linejoin:miter;stroke-miterlimit:4;stroke-dasharray:none;stroke-dashoffset:0;stroke-opacity:1"
       id="rect4806-6-2-7"
       width="140.07185"
       height="197.06657"
       x="343.14313"
       y="845.67236"
       ry="18.092936" />
    <rect
       style="opacity:1;fill:none;fill-opacity:1;stroke:#12d833;stroke-width:0.72634423;stroke-linecap:butt;stroke-linejoin:miter;stroke-miterlimit:1;stroke-dasharray:none;stroke-dashoffset:0;stroke-opacity:1"
       id="rect4306-4"
       width="63.053844"
       height="25.431147"
       x="343.56152"
       y="1026.6473"
       ry="0" />
    <rect
       style="opacity:1;fill:none;fill-opacity:1;stroke:#12d833;stroke-width:1.83981156;stroke-linecap:butt;stroke-linejoin:miter;stroke-miterlimit:4;stroke-dasharray:none;stroke-dashoffset:0;stroke-opacity:1"
       id="rect4806-6-5-3"
       width="157.61069"
       height="214.63229"
       x="500.90942"
       y="836.88971"
       ry="19.705669" />
    <rect
       style="opacity:1;fill:none;fill-opacity:1;stroke:#12d833;stroke-width:1.66193831;stroke-linecap:butt;stroke-linejoin:miter;stroke-miterlimit:4;stroke-dasharray:none;stroke-dashoffset:0;stroke-opacity:1"
       id="rect4806-6-2-7-8"
       width="140.07185"
       height="197.06657"
       x="509.67883"
       y="845.67261"
       ry="18.092936" />
    <rect
       style="opacity:1;fill:none;fill-opacity:1;stroke:#12d833;stroke-width:0.72634423;stroke-linecap:butt;stroke-linejoin:miter;stroke-miterlimit:1;stroke-dasharray:none;stroke-dashoffset:0;stroke-opacity:1"
       id="rect4306-4-8"
       width="63.053844"
       height="25.431147"
       x="510.0972"
       y="1026.6473"
       ry="0" />
    <ellipse
       style="opacity:1;fill:none;fill-opacity:1;stroke:#ff0000;stroke-width:0.63683772;stroke-linecap:butt;stroke-linejoin:miter;stroke-miterlimit:4;stroke-dasharray:none;stroke-dashoffset:0;stroke-opacity:1"
       id="path4273-6-6"
       cx="-1037.3604"
       cy="747.13635"
       transform="matrix(0,-1,1,0,0,0)"
       rx="3.5849578"
       ry="3.5794694" />
    <ellipse
       style="opacity:1;fill:none;fill-opacity:1;stroke:#ff0000;stroke-width:0.63683772;stroke-linecap:butt;stroke-linejoin:miter;stroke-miterlimit:4;stroke-dasharray:none;stroke-dashoffset:0;stroke-opacity:1"
       id="path4273-6-8-8"
       cx="-851.93854"
       cy="802.94348"
       transform="matrix(0,-1,1,0,0,0)"
       rx="3.5849578"
       ry="3.5794694" />
    <ellipse
       style="opacity:1;fill:none;fill-opacity:1;stroke:#ff0000;stroke-width:0.63683772;stroke-linecap:butt;stroke-linejoin:miter;stroke-miterlimit:4;stroke-dasharray:none;stroke-dashoffset:0;stroke-opacity:1"
       id="path4273-6-8-5-2"
       cx="-851.93854"
       cy="689.5575"
       transform="matrix(0,-1,1,0,0,0)"
       rx="3.5849578"
       ry="3.5794694" />
    <rect
       style="opacity:1;fill:none;fill-opacity:1;stroke:#ff0000;stroke-width:1.83981156;stroke-linecap:butt;stroke-linejoin:miter;stroke-miterlimit:4;stroke-dasharray:none;stroke-dashoffset:0;stroke-opacity:1"
       id="rect4806-0"
       width="157.61069"
       height="214.63229"
       x="667.44513"
       y="836.88971"
       ry="19.705669" />
    <rect
       style="opacity:1;fill:none;fill-opacity:1;stroke:#12d833;stroke-width:1.83981156;stroke-linecap:butt;stroke-linejoin:miter;stroke-miterlimit:4;stroke-dasharray:none;stroke-dashoffset:0;stroke-opacity:1"
       id="rect4806-6-3"
       width="157.85236"
       height="214.3037"
       x="-817.30469"
       y="231.61766"
       ry="19.675501"
       transform="matrix(0,-1,1,0,0,0)" />
    <rect
       style="opacity:1;fill:none;fill-opacity:1;stroke:#12d833;stroke-width:1.66193831;stroke-linecap:butt;stroke-linejoin:miter;stroke-miterlimit:4;stroke-dasharray:none;stroke-dashoffset:0;stroke-opacity:1"
       id="rect4806-6-2-8"
       width="140.28664"
       height="196.76486"
       x="-808.52185"
       y="240.38705"
       ry="18.065237"
       transform="matrix(0,-1,1,0,0,0)" />
    <rect
       style="opacity:1;fill:none;fill-opacity:1;stroke:#12d833;stroke-width:1.83981156;stroke-linecap:butt;stroke-linejoin:miter;stroke-miterlimit:4;stroke-dasharray:none;stroke-dashoffset:0;stroke-opacity:1"
       id="rect4806-6-5-8"
       width="157.85236"
       height="214.3037"
       x="-817.30469"
       y="461.93304"
       ry="19.675501"
       transform="matrix(0,-1,1,0,0,0)" />
    <rect
       style="opacity:1;fill:none;fill-opacity:1;stroke:#12d833;stroke-width:1.66193831;stroke-linecap:butt;stroke-linejoin:miter;stroke-miterlimit:4;stroke-dasharray:none;stroke-dashoffset:0;stroke-opacity:1"
       id="rect4806-6-2-7-7"
       width="140.28664"
       height="196.76486"
       x="-808.52185"
       y="470.70221"
       ry="18.065237"
       transform="matrix(0,-1,1,0,0,0)" />
    <rect
       style="opacity:1;fill:none;fill-opacity:1;stroke:#12d833;stroke-width:0.72634423;stroke-linecap:butt;stroke-linejoin:miter;stroke-miterlimit:1;stroke-dasharray:none;stroke-dashoffset:0;stroke-opacity:1"
       id="rect4306-4-6"
       width="63.150528"
       height="25.392212"
       x="-808.10297"
       y="651.40015"
       ry="0"
       transform="matrix(0,-1,1,0,0,0)" />
    <rect
       style="opacity:1;fill:none;fill-opacity:1;stroke:#12d833;stroke-width:1.83981156;stroke-linecap:butt;stroke-linejoin:miter;stroke-miterlimit:4;stroke-dasharray:none;stroke-dashoffset:0;stroke-opacity:1"
       id="rect4806-6-5-7"
       width="157.85236"
       height="214.3037"
       x="-817.30469"
       y="1.3022902"
       ry="19.675501"
       transform="matrix(0,-1,1,0,0,0)" />
    <rect
       style="opacity:1;fill:none;fill-opacity:1;stroke:#12d833;stroke-width:1.66193831;stroke-linecap:butt;stroke-linejoin:miter;stroke-miterlimit:4;stroke-dasharray:none;stroke-dashoffset:0;stroke-opacity:1"
       id="rect4806-6-2-7-2"
       width="140.28664"
       height="196.76486"
       x="-808.52185"
       y="10.07147"
       ry="18.065237"
       transform="matrix(0,-1,1,0,0,0)" />
    <rect
       style="opacity:1;fill:none;fill-opacity:1;stroke:#12d833;stroke-width:0.72634423;stroke-linecap:butt;stroke-linejoin:miter;stroke-miterlimit:1;stroke-dasharray:none;stroke-dashoffset:0;stroke-opacity:1"
       id="rect4306-4-4"
       width="63.150528"
       height="25.392212"
       x="-808.10297"
       y="190.76941"
       ry="0"
       transform="matrix(0,-1,1,0,0,0)" />
    <g
       transform="translate(26.177529,-363.52692)"
       style="font-style:normal;font-variant:normal;font-weight:normal;font-stretch:normal;font-size:22.5px;line-height:125%;font-family:sans-serif;-inkscape-font-specification:'sans-serif, Normal';text-align:start;letter-spacing:0px;word-spacing:0px;writing-mode:lr-tb;text-anchor:start;fill:#000000;fill-opacity:1;stroke:none;stroke-width:1px;stroke-linecap:butt;stroke-linejoin:miter;stroke-opacity:1"
       id="flowRoot4158">
      <path
         d="m 894.58325,1399.5486 q 0,3.9331 -2.79053,6.7236 -2.77954,2.7796 -6.71264,2.7796 -3.93311,0 -6.72363,-2.7796 -2.77955,-2.7905 -2.77955,-6.7236 0,-3.9331 2.77955,-6.7127 2.79052,-2.7905 6.72363,-2.7905 3.9331,0 6.71264,2.7905 2.79053,2.7796 2.79053,6.7127 z m -1.27441,0 q 0,-3.4058 -2.41699,-5.8447 -2.40601,-2.439 -5.81177,-2.439 -3.40576,0 -5.82276,2.439 -2.406,2.4389 -2.406,5.8447 0,3.4058 2.406,5.8447 2.417,2.439 5.82276,2.439 3.40576,0 5.81177,-2.439 2.41699,-2.4389 2.41699,-5.8447 z m -4.37256,4.3616 q -0.94482,0.4284 -1.82373,0.6482 -0.86792,0.2087 -1.72485,0.2087 -2.4939,0 -3.9441,-1.3513 -1.45019,-1.3513 -1.45019,-3.9221 0,-2.472 1.47217,-3.8892 1.48315,-1.4172 3.92212,-1.4172 0.97778,0 1.9226,0.2636 0.94483,0.2637 1.62598,0.5713 l 0,1.9885 -0.17578,0 q -0.59326,-0.4394 -1.5271,-0.8239 -0.92285,-0.3845 -1.90064,-0.3845 -1.56005,0 -2.43896,0.9448 -0.86792,0.9338 -0.86792,2.7466 0,1.7468 0.83496,2.7026 0.84595,0.9558 2.47192,0.9558 0.91187,0 1.7688,-0.3186 0.86792,-0.3186 1.65894,-0.8899 l 0.17578,0 0,1.9666 z"
         style=""
         id="path4177" />
      <path
         d="m 917.08325,1406.7446 -11.07422,0 0,-2.2961 q 1.15357,-0.9888 2.30713,-1.9775 1.16455,-0.9888 2.16431,-1.9666 2.10937,-2.0435 2.8894,-3.241 0.78003,-1.2085 0.78003,-2.6037 0,-1.2744 -0.84594,-1.9885 -0.83497,-0.7251 -2.34009,-0.7251 -0.99976,0 -2.16431,0.3515 -1.16455,0.3516 -2.27417,1.0767 l -0.10986,0 0,-2.3072 q 0.78003,-0.3845 2.07641,-0.7031 1.30738,-0.3186 2.52686,-0.3186 2.51587,0 3.94409,1.2195 1.42822,1.2085 1.42822,3.2849 0,0.9339 -0.2417,1.7468 -0.23071,0.802 -0.69213,1.5271 -0.42847,0.6812 -1.01075,1.3404 -0.57129,0.6591 -1.39526,1.4612 -1.17554,1.1535 -2.42798,2.2412 -1.25244,1.0766 -2.34009,1.9995 l 8.80005,0 0,1.8786 z"
         style=""
         id="path4179" />
      <path
         d="m 931.38745,1398.5598 q 0,4.4055 -1.38428,6.471 -1.37329,2.0544 -4.27368,2.0544 -2.94433,0 -4.30664,-2.0874 -1.35132,-2.0874 -1.35132,-6.416 0,-4.3616 1.37329,-6.438 1.3733,-2.0874 4.28467,-2.0874 2.94434,0 4.29566,2.1204 1.3623,2.1093 1.3623,6.383 z m -2.8894,4.9878 q 0.38452,-0.8899 0.51635,-2.0874 0.14283,-1.2085 0.14283,-2.9004 0,-1.6699 -0.14283,-2.9004 -0.13183,-1.2304 -0.52734,-2.0874 -0.38452,-0.8459 -1.05469,-1.2744 -0.65918,-0.4285 -1.70288,-0.4285 -1.03271,0 -1.71387,0.4285 -0.67016,0.4285 -1.06567,1.2964 -0.37353,0.813 -0.51636,2.1204 -0.13183,1.3073 -0.13183,2.8674 0,1.7139 0.12085,2.8674 0.12085,1.1536 0.51635,2.0655 0.36255,0.8569 1.02173,1.3073 0.67017,0.4505 1.7688,0.4505 1.03272,0 1.71387,-0.4285 0.68115,-0.4285 1.05469,-1.2964 z"
         style=""
         id="path4181" />
      <path
         d="m 944.80176,1406.7446 -8.85498,0 0,-1.6699 3.40576,0 0,-10.9643 -3.40576,0 0,-1.4942 q 0.69214,0 1.48315,-0.1098 0.79102,-0.1209 1.19751,-0.3406 0.50537,-0.2747 0.79102,-0.6922 0.29663,-0.4284 0.34057,-1.1425 l 1.70288,0 0,14.7436 3.33985,0 0,1.6699 z"
         style=""
         id="path4183" />
      <path
         d="m 959.92993,1401.5481 q 0,1.1426 -0.41748,2.1863 -0.41748,1.0437 -1.14258,1.7578 -0.79101,0.769 -1.88965,1.1865 -1.08764,0.4065 -2.52685,0.4065 -1.34033,0 -2.58179,-0.2856 -1.24145,-0.2747 -2.09839,-0.6702 l 0,-2.3181 0.15381,0 q 0.90088,0.5713 2.10938,0.9778 1.20849,0.3955 2.37304,0.3955 0.78003,0 1.50513,-0.2197 0.73608,-0.2198 1.30737,-0.7691 0.4834,-0.4724 0.7251,-1.1316 0.25269,-0.6592 0.25269,-1.5271 0,-0.8459 -0.29663,-1.4282 -0.28565,-0.5823 -0.80201,-0.9338 -0.57128,-0.4175 -1.39526,-0.5823 -0.81299,-0.1758 -1.82373,-0.1758 -0.9668,0 -1.86768,0.1318 -0.88989,0.1319 -1.53808,0.2637 l 0,-8.4265 9.84375,0 0,1.9226 -7.72339,0 0,4.3506 q 0.47241,-0.044 0.9668,-0.066 0.49438,-0.022 0.85693,-0.022 1.32935,0 2.3291,0.2307 0.99976,0.2197 1.83472,0.791 0.8789,0.6043 1.3623,1.5601 0.4834,0.9558 0.4834,2.395 z"
         style=""
         id="path4185" />
      <path
         d="m 984.16577,1406.7446 -2.17529,0 0,-8.009 -8.16284,0 0,8.009 -2.1753,0 0,-16.3586 2.1753,0 0,6.416 8.16284,0 0,-6.416 2.17529,0 0,16.3586 z"
         style=""
         id="path4187" />
      <path
         d="m 998.67871,1400.823 -9.04175,0 q 0,1.1316 0.34058,1.9775 0.34058,0.835 0.93384,1.3733 0.57129,0.5274 1.35132,0.7911 0.79101,0.2636 1.73584,0.2636 1.25244,0 2.51586,-0.4944 1.27442,-0.5053 1.81275,-0.9887 l 0.10986,0 0,2.2522 q -1.0437,0.4394 -2.13135,0.7361 -1.08764,0.2966 -2.28515,0.2966 -3.0542,0 -4.76807,-1.648 -1.71387,-1.6589 -1.71387,-4.7021 0,-3.0103 1.63697,-4.7791 1.64795,-1.7688 4.32861,-1.7688 2.48291,0 3.82324,1.4502 1.35132,1.4502 1.35132,4.1199 l 0,1.1206 z m -2.0105,-1.582 q -0.011,-1.626 -0.82397,-2.5159 -0.802,-0.8899 -2.44995,-0.8899 -1.65894,0 -2.64771,0.9778 -0.97778,0.9778 -1.10962,2.428 l 7.03125,0 z"
         style=""
         id="path4189" />
      <path
         d="m 1009.4673,1396.7251 -0.1099,0 q -0.4614,-0.1099 -0.9009,-0.1538 -0.4284,-0.055 -1.0217,-0.055 -0.9558,0 -1.8457,0.4284 -0.8899,0.4175 -1.7139,1.0877 l 0,8.7121 -2.0654,0 0,-12.2717 2.0654,0 0,1.8128 q 1.2305,-0.9888 2.1644,-1.3953 0.9448,-0.4175 1.9226,-0.4175 0.5383,0 0.78,0.033 0.2417,0.022 0.7251,0.099 l 0,2.1204 z"
         style=""
         id="path4191" />
      <path
         d="m 1021.7061,1400.823 -9.0418,0 q 0,1.1316 0.3406,1.9775 0.3406,0.835 0.9338,1.3733 0.5713,0.5274 1.3513,0.7911 0.7911,0.2636 1.7359,0.2636 1.2524,0 2.5158,-0.4944 1.2745,-0.5053 1.8128,-0.9887 l 0.1099,0 0,2.2522 q -1.0437,0.4394 -2.1314,0.7361 -1.0876,0.2966 -2.2851,0.2966 -3.0542,0 -4.7681,-1.648 -1.7139,-1.6589 -1.7139,-4.7021 0,-3.0103 1.637,-4.7791 1.6479,-1.7688 4.3286,-1.7688 2.4829,0 3.8232,1.4502 1.3514,1.4502 1.3514,4.1199 l 0,1.1206 z m -2.0105,-1.582 q -0.011,-1.626 -0.824,-2.5159 -0.802,-0.8899 -2.45,-0.8899 -1.6589,0 -2.6477,0.9778 -0.9778,0.9778 -1.1096,2.428 l 7.0313,0 z"
         style=""
         id="path4193" />
    </g>
    <flowRoot
       xml:space="preserve"
       id="flowRoot4166"
       style="fill:black;stroke:none;stroke-opacity:1;stroke-width:1px;stroke-linejoin:miter;stroke-linecap:butt;fill-opacity:1;font-family:sans-serif;font-style:normal;font-weight:normal;font-size:40px;line-height:125%;letter-spacing:0px;word-spacing:0px"><flowRegion
         id="flowRegion4168"><rect
           id="rect4170"
           width="13.712039"
           height="52.355057"
           x="987.26678"
           y="1384.7255" /></flowRegion><flowPara
         id="flowPara4172"></flowPara></flowRoot>  </g>
</svg>
